<svg width="50" height="50" viewBox="0 0 30 30" fill="none" xmlns="http://www.w3.org/2000/svg">
<path d="M22.4918 4.3562H16.7117V6.8133C16.7117 8.40943 18.0056 9.70335 19.6017 9.70335V9.70335C21.1978 9.70335 22.4918 8.40943 22.4918 6.8133V4.3562Z" fill="url(#paint0_linear_901_6)"/>
<path d="M21.0504 13.4807C21.5231 13.4807 21.9534 13.537 22.3413 13.6495C22.7413 13.7495 23.0685 13.8807 23.3231 14.0432C23.6382 14.2432 23.8806 14.4932 24.0504 14.7932C24.2322 15.0807 24.3231 15.4182 24.3231 15.8057C24.3231 16.2432 24.1897 16.6057 23.9231 16.8932C23.6564 17.1682 23.3109 17.3057 22.8867 17.3057C22.4624 17.3057 22.1231 17.1807 21.8685 16.9307C21.614 16.6807 21.4867 16.3432 21.4867 15.9182C21.4867 15.5182 21.6079 15.1869 21.8504 14.9244C22.0927 14.6495 22.3715 14.4682 22.6867 14.3807C22.5897 14.2557 22.4443 14.1495 22.2504 14.0619C22.0564 13.9745 21.8382 13.9307 21.5958 13.9307C21.22 13.9307 20.8867 14.0432 20.5958 14.2682C20.317 14.4932 20.0806 14.8057 19.8867 15.2057C19.6927 15.6057 19.5413 16.0745 19.4322 16.6119C19.3352 17.1495 19.2867 17.737 19.2867 18.3745C19.2867 19.337 19.4018 20.0932 19.6322 20.6432C19.8745 21.1932 20.1776 21.5807 20.5413 21.8057C20.917 22.0307 21.3049 22.1432 21.7049 22.1432C21.9352 22.1432 22.1836 22.1057 22.4504 22.0307C22.7291 21.9557 23.0079 21.8057 23.2867 21.5807C23.5776 21.3557 23.8443 21.0369 24.0867 20.6244L24.3958 20.737C24.2624 21.1995 24.0443 21.662 23.7413 22.1245C23.4382 22.587 23.0443 22.9682 22.5594 23.2682C22.0745 23.5557 21.4806 23.6995 20.7776 23.6995C19.9897 23.6995 19.2745 23.5245 18.6322 23.1744C18.0018 22.812 17.4927 22.262 17.1049 21.5244C16.7291 20.7744 16.5413 19.812 16.5413 18.6369C16.5413 17.5119 16.7352 16.5682 17.1231 15.8057C17.5231 15.0307 18.0624 14.4495 18.7413 14.0619C19.42 13.6745 20.1897 13.4807 21.0504 13.4807Z" fill="black"/>
<path d="M11.2517 23.4591C10.5427 23.4477 9.89856 23.3529 9.31934 23.1748C8.7217 23.0152 8.23384 22.8105 7.85575 22.5605C7.38761 22.253 7.0297 21.8722 6.78197 21.4181C6.51584 20.9825 6.38716 20.4741 6.39593 19.893C6.40588 19.2368 6.61406 18.6963 7.02056 18.2716C7.42675 17.8656 7.94802 17.6677 8.58429 17.6779C9.22056 17.6882 9.72675 17.8839 10.1028 18.265C10.4789 18.6461 10.6622 19.1553 10.6526 19.7928C10.6435 20.3927 10.4541 20.8865 10.0846 21.2743C9.71475 21.681 9.29247 21.9461 8.81784 22.0698C8.96043 22.2596 9.17615 22.4224 9.46506 22.5583C9.75393 22.6942 10.0802 22.7652 10.4437 22.771C11.0074 22.7801 11.5098 22.6194 11.9513 22.2889C12.3745 21.9583 12.7361 21.4953 13.036 20.9C13.336 20.3047 13.5739 19.6053 13.7497 18.8019C13.9074 17.9981 13.9935 17.1181 14.0079 16.1619C14.0297 14.7183 13.8742 13.5813 13.5413 12.7509C13.1902 11.9202 12.7445 11.3316 12.2042 10.9854C11.6457 10.6389 11.0666 10.4608 10.4667 10.4511C10.1212 10.4456 9.74775 10.4958 9.34602 10.6018C8.9262 10.7076 8.50466 10.9258 8.08143 11.2565C7.64002 11.587 7.23284 12.0587 6.85988 12.6714L6.39884 12.4953C6.60934 11.8048 6.94706 11.1163 7.41206 10.43C7.87702 9.74369 8.47652 9.1814 9.21052 8.74319C9.94429 8.32371 10.8383 8.12245 11.8927 8.13942C13.0744 8.15845 14.143 8.43818 15.0986 8.97864C16.0357 9.53752 16.7867 10.3747 17.3517 11.4903C17.8983 12.6242 18.1582 14.0722 18.1316 15.8345C18.106 17.5218 17.7937 18.9326 17.1947 20.0668C16.5771 21.2195 15.7549 22.0783 14.728 22.6431C13.7012 23.2078 12.5424 23.4798 11.2517 23.4591Z" fill="black"/>
<defs>
<linearGradient id="paint0_linear_901_6" x1="19.6018" y1="4.3562" x2="19.6018" y2="9.7034" gradientUnits="userSpaceOnUse">
<stop offset="0.442708" stop-color="#FF7BA9"/>
<stop offset="1" stop-color="#FFE7F0"/>
</linearGradient>
</defs>
</svg>
